<svg width="25" height="24" viewBox="0 0 25 24" fill="none" xmlns="http://www.w3.org/2000/svg">
<path d="M15.9502 15.3486C16.4741 15.5232 17.0404 15.2401 17.2151 14.7161C17.3897 14.1922 17.1066 13.6259 16.5826 13.4512L15.9502 15.3486ZM12.6664 13.1999H11.6664C11.6664 13.6303 11.9418 14.0125 12.3502 14.1486L12.6664 13.1999ZM13.6664 8.18216C13.6664 7.62988 13.2187 7.18216 12.6664 7.18216C12.1141 7.18216 11.6664 7.62988 11.6664 8.18216H13.6664ZM16.5826 13.4512L12.9826 12.2512L12.3502 14.1486L15.9502 15.3486L16.5826 13.4512ZM13.6664 13.1999V8.18216H11.6664V13.1999H13.6664ZM21.2664 11.9999C21.2664 16.7495 17.4161 20.5999 12.6664 20.5999V22.5999C18.5206 22.5999 23.2664 17.8541 23.2664 11.9999H21.2664ZM12.6664 20.5999C7.91676 20.5999 4.06641 16.7495 4.06641 11.9999H2.06641C2.06641 17.8541 6.81219 22.5999 12.6664 22.5999V20.5999ZM4.06641 11.9999C4.06641 7.25025 7.91676 3.3999 12.6664 3.3999V1.3999C6.81219 1.3999 2.06641 6.14568 2.06641 11.9999H4.06641ZM12.6664 3.3999C17.4161 3.3999 21.2664 7.25025 21.2664 11.9999H23.2664C23.2664 6.14568 18.5206 1.3999 12.6664 1.3999V3.3999Z" fill="#D2D1D5"/>
</svg>
